<svg xmlns="http://www.w3.org/2000/svg" viewBox="0 0 1200 620" role="img" aria-labelledby="title desc">
  <title id="title">Luz mista em sala</title>
  <desc id="desc">Diagrama mostra janela fria, ring light quente, objeto central e decisão de balanço de branco.</desc>
  <defs>
    <linearGradient id="cool" x1="0" x2="1">
      <stop offset="0" stop-color="#9fc8ff" stop-opacity="0.78"/>
      <stop offset="1" stop-color="#9fc8ff" stop-opacity="0"/>
    </linearGradient>
    <radialGradient id="warm" cx="0.5" cy="0.5" r="0.58">
      <stop offset="0" stop-color="#f0c26e" stop-opacity="0.78"/>
      <stop offset="1" stop-color="#f0c26e" stop-opacity="0"/>
    </radialGradient>
  </defs>
  <rect width="1200" height="620" fill="#141414"/>
  <rect x="88" y="86" width="260" height="338" rx="8" fill="#0e1115" stroke="#fff" stroke-opacity="0.12"/>
  <rect x="116" y="116" width="92" height="124" fill="#9fc8ff" opacity="0.18"/>
  <rect x="228" y="116" width="92" height="124" fill="#9fc8ff" opacity="0.18"/>
  <rect x="116" y="260" width="92" height="124" fill="#9fc8ff" opacity="0.18"/>
  <rect x="228" y="260" width="92" height="124" fill="#9fc8ff" opacity="0.18"/>
  <path d="M348 114 676 478H142z" fill="url(#cool)"/>
  <circle cx="910" cy="232" r="86" fill="none" stroke="#f0d28a" stroke-width="24"/>
  <circle cx="910" cy="232" r="230" fill="url(#warm)"/>
  <path d="M910 330v168" stroke="#5d5444" stroke-width="10" stroke-linecap="round"/>
  <path d="M852 526h116" stroke="#5d5444" stroke-width="11" stroke-linecap="round"/>
  <rect x="226" y="450" width="702" height="52" rx="8" fill="#26231f"/>
  <ellipse cx="578" cy="452" rx="180" ry="32" fill="#000" opacity="0.32"/>
  <g transform="translate(514 320)">
    <rect x="0" y="46" width="126" height="86" rx="10" fill="#cb8e59"/>
    <path d="M18 46c8-48 81-48 90 0" fill="none" stroke="#efc175" stroke-width="15" stroke-linecap="round"/>
    <path d="M38 75h52" stroke="#613b28" stroke-width="9" stroke-linecap="round" opacity="0.28"/>
  </g>
  <g font-family="Segoe UI, system-ui, sans-serif">
    <text x="92" y="58" fill="#f0f0ec" font-size="26" font-weight="700">janela fria</text>
    <text x="828" y="115" fill="#f0f0ec" font-size="26" font-weight="700">luz quente</text>
    <text x="412" y="564" fill="#c8c4bc" font-size="20">WB escolhido no objeto principal; o resto vira atmosfera.</text>
    <g fill="#c4a86c" font-size="18">
      <text x="92" y="482">5500K+</text>
      <text x="874" y="346">3200K</text>
    </g>
  </g>
</svg>
