<svg xmlns="http://www.w3.org/2000/svg" viewBox="0 0 1000 440" width="1000" height="440" role="img" aria-label="Doze colunas divididas em 2, 3, 4 e 6 partes iguais"><rect width="1000" height="440" rx="14" fill="#F4F1FA"/><text x="30" y="66" font-family="Arial, sans-serif" font-size="24" font-weight="700" fill="#C2185B" text-anchor="start">12 colunas</text><rect x="250" y="30" width="52.666666666666664" height="56" rx="4" fill="#FF4F7B" fill-opacity="0.25"/><text x="276.3333333333333" y="66" font-family="Arial, sans-serif" font-size="18" font-weight="700" fill="#C2185B" text-anchor="middle">1</text><rect x="310.6666666666667" y="30" width="52.666666666666664" height="56" rx="4" fill="#FF4F7B" fill-opacity="0.25"/><text x="337" y="66" font-family="Arial, sans-serif" font-size="18" font-weight="700" fill="#C2185B" text-anchor="middle">2</text><rect x="371.3333333333333" y="30" width="52.666666666666664" height="56" rx="4" fill="#FF4F7B" fill-opacity="0.25"/><text x="397.66666666666663" y="66" font-family="Arial, sans-serif" font-size="18" font-weight="700" fill="#C2185B" text-anchor="middle">3</text><rect x="432" y="30" width="52.666666666666664" height="56" rx="4" fill="#FF4F7B" fill-opacity="0.25"/><text x="458.3333333333333" y="66" font-family="Arial, sans-serif" font-size="18" font-weight="700" fill="#C2185B" text-anchor="middle">4</text><rect x="492.66666666666663" y="30" width="52.666666666666664" height="56" rx="4" fill="#FF4F7B" fill-opacity="0.25"/><text x="519" y="66" font-family="Arial, sans-serif" font-size="18" font-weight="700" fill="#C2185B" text-anchor="middle">5</text><rect x="553.3333333333333" y="30" width="52.666666666666664" height="56" rx="4" fill="#FF4F7B" fill-opacity="0.25"/><text x="579.6666666666666" y="66" font-family="Arial, sans-serif" font-size="18" font-weight="700" fill="#C2185B" text-anchor="middle">6</text><rect x="614" y="30" width="52.666666666666664" height="56" rx="4" fill="#FF4F7B" fill-opacity="0.25"/><text x="640.3333333333334" y="66" font-family="Arial, sans-serif" font-size="18" font-weight="700" fill="#C2185B" text-anchor="middle">7</text><rect x="674.6666666666666" y="30" width="52.666666666666664" height="56" rx="4" fill="#FF4F7B" fill-opacity="0.25"/><text x="701" y="66" font-family="Arial, sans-serif" font-size="18" font-weight="700" fill="#C2185B" text-anchor="middle">8</text><rect x="735.3333333333333" y="30" width="52.666666666666664" height="56" rx="4" fill="#FF4F7B" fill-opacity="0.25"/><text x="761.6666666666666" y="66" font-family="Arial, sans-serif" font-size="18" font-weight="700" fill="#C2185B" text-anchor="middle">9</text><rect x="796" y="30" width="52.666666666666664" height="56" rx="4" fill="#FF4F7B" fill-opacity="0.25"/><text x="822.3333333333334" y="66" font-family="Arial, sans-serif" font-size="18" font-weight="700" fill="#C2185B" text-anchor="middle">10</text><rect x="856.6666666666666" y="30" width="52.666666666666664" height="56" rx="4" fill="#FF4F7B" fill-opacity="0.25"/><text x="883" y="66" font-family="Arial, sans-serif" font-size="18" font-weight="700" fill="#C2185B" text-anchor="middle">11</text><rect x="917.3333333333333" y="30" width="52.666666666666664" height="56" rx="4" fill="#FF4F7B" fill-opacity="0.25"/><text x="943.6666666666666" y="66" font-family="Arial, sans-serif" font-size="18" font-weight="700" fill="#C2185B" text-anchor="middle">12</text><text x="30" y="154" font-family="Arial, sans-serif" font-size="24" font-weight="700" fill="#1B1440" text-anchor="start">2 itens × 6 colunas</text><rect x="250" y="118" width="356" height="56" rx="6" fill="#6C4CF5"/><rect x="614" y="118" width="356" height="56" rx="6" fill="#8F75FF"/><text x="30" y="232" font-family="Arial, sans-serif" font-size="24" font-weight="700" fill="#1B1440" text-anchor="start">3 itens × 4 colunas</text><rect x="250" y="196" width="234.66666666666666" height="56" rx="6" fill="#6C4CF5"/><rect x="492.66666666666663" y="196" width="234.66666666666666" height="56" rx="6" fill="#8F75FF"/><rect x="735.3333333333333" y="196" width="234.66666666666666" height="56" rx="6" fill="#6C4CF5"/><text x="30" y="310" font-family="Arial, sans-serif" font-size="24" font-weight="700" fill="#1B1440" text-anchor="start">4 itens × 3 colunas</text><rect x="250" y="274" width="174" height="56" rx="6" fill="#6C4CF5"/><rect x="432" y="274" width="174" height="56" rx="6" fill="#8F75FF"/><rect x="614" y="274" width="174" height="56" rx="6" fill="#6C4CF5"/><rect x="796" y="274" width="174" height="56" rx="6" fill="#8F75FF"/><text x="30" y="388" font-family="Arial, sans-serif" font-size="24" font-weight="700" fill="#1B1440" text-anchor="start">6 itens × 2 colunas</text><rect x="250" y="352" width="113.33333333333333" height="56" rx="6" fill="#6C4CF5"/><rect x="371.3333333333333" y="352" width="113.33333333333333" height="56" rx="6" fill="#8F75FF"/><rect x="492.66666666666663" y="352" width="113.33333333333333" height="56" rx="6" fill="#6C4CF5"/><rect x="614" y="352" width="113.33333333333333" height="56" rx="6" fill="#8F75FF"/><rect x="735.3333333333333" y="352" width="113.33333333333333" height="56" rx="6" fill="#6C4CF5"/><rect x="856.6666666666666" y="352" width="113.33333333333333" height="56" rx="6" fill="#8F75FF"/></svg>