<svg xmlns="http://www.w3.org/2000/svg" viewBox="0 0 720 720" width="720" height="720" role="img" aria-label="Post quadrado da Arena Pixel"><rect width="720" height="720" fill="#F4F1FA"/><g data-part="brand" tabindex="0" role="button" aria-label="Mover Marca" transform="translate(48 48)"><svg width="300" height="56" overflow="hidden"><g opacity="1"><rect x="0" y="8" width="20" height="20" fill="#FF4F7B"/><rect x="20" y="8" width="20" height="20" fill="#FFD23F"/><rect x="0" y="28" width="20" height="20" fill="#8F75FF"/><rect x="20" y="28" width="20" height="20" fill="#FF4F7B"/><text x="54" y="40" font-family="Arial, sans-serif" font-size="28" fill="#1B1440" font-weight="700"><title>ARENA PIXEL</title>ARENA PIXEL</text></g></svg><rect class="hit" width="300" height="56" fill="transparent"/></g><g data-part="hero" tabindex="0" role="button" aria-label="Mover Campeonato novo" transform="translate(48 128)"><svg width="624" height="240" overflow="hidden"><g opacity="1"><rect width="624" height="240" rx="12" fill="#2B1D6B"/><text x="28" y="116" font-family="Arial, sans-serif" font-size="32" fill="#FFFFFF" font-weight="700"><title>Campeonato novo</title>Campeonato novo</text><text x="28" y="154" font-family="Arial, sans-serif" font-size="20" fill="#FFD23F"><title>Inscrições abertas na Arena</title>Inscrições abertas na Arena</text></g></svg><rect class="hit" width="624" height="240" fill="transparent"/></g><g data-part="chess" tabindex="0" role="button" aria-label="Mover Xadrez rápido" transform="translate(48 392)"><svg width="300" height="144" overflow="hidden"><g opacity="1"><rect width="300" height="144" rx="10" fill="#FFFFFF" stroke="#D9D2F0"/><rect x="0" y="0" width="300" height="10" rx="4" fill="#6C4CF5"/><text x="20" y="44" font-family="Arial, sans-serif" font-size="12" fill="#6C4CF5" font-weight="700" letter-spacing="1.5"><title>CAMPEONATO</title>CAMPEONATO</text><text x="20" y="80" font-family="Arial, sans-serif" font-size="22" fill="#1B1440" font-weight="700"><title>Xadrez rápido</title>Xadrez rápido</text><text x="20" y="114" font-family="Arial, sans-serif" font-size="18" fill="#4A4370"><title>Sábado · 15h</title>Sábado · 15h</text></g></svg><rect class="hit" width="300" height="144" fill="transparent"/></g><g data-part="button" tabindex="0" role="button" aria-label="Mover Botão" transform="translate(372 392)"><svg width="300" height="56" overflow="hidden"><g opacity="1"><rect width="300" height="56" rx="28" fill="#FF4F7B"/><text x="150" y="35" font-family="Arial, sans-serif" font-size="18" fill="#FFFFFF" font-weight="700" text-anchor="middle"><title>Quero participar</title>Quero participar</text></g></svg><rect class="hit" width="300" height="56" fill="transparent"/></g><g data-part="footer" tabindex="0" role="button" aria-label="Mover Rodapé" transform="translate(48 648)"><svg width="408" height="24" overflow="hidden"><g opacity="1"><text x="0" y="18" font-family="Arial, sans-serif" font-size="16" fill="#6B6591"><title>Empresa fictícia · exercício de grade</title>Empresa fictícia · exercício de grade</text></g></svg><rect class="hit" width="408" height="24" fill="transparent"/></g></svg>